/* XPM */
static char *ca7a1cc70abc4a55c5f265c2f063c704TAOoTfUwDdf4RH6e[] = {
/* columns rows colors chars-per-pixel */
"24 24 11 1 ",
"  c black",
". c #3F0000",
"X c #3F0E0E",
"o c #4C1A0A",
"O c #471818",
"+ c #442222",
"@ c #4C8854",
"# c #CD883D",
"$ c #FF883F",
"% c #8B884E",
"& c #00888C",
/* pixels */
"                        ",
" . XXXXXX ....... OOOOO ",
" . XXXXXX ....... OOOOO ",
" . XXXXXX ....... OOOOO ",
"                        ",
" OOOOO OOOOOOOO XXXXXXX ",
" OOOOO OOOOOOOO XXXXXXX ",
" OOOOO OO       XXXXXXX ",
" OOOOO   &@%%%%  XXXXXX ",
"       &@@%%%$$#&       ",
" XXXX &@@%%%%$$$%& OOOO ",
" XXXX @@@%%%%%$$%% OOOO ",
" XXX &@@@%%%%%%%%%@ OOO ",
" XXX &@@@@%%%%%%%%@ OOO ",
"     &@@@@@%%%%%%@@     ",
" ++  &&@@@@@@@@@@@& XXX ",
" ++ o &&&@@@@@@@&& XXXX ",
" ++ oo            XXXXX ",
" ++ ooooooooo XXXXXXXXX ",
"                        ",
" OOOOOOOO XXXXXXXXXXXXX ",
" OOOOOOOO XXXXXXXXXXXXX ",
" OOOOOOOO XXXXXXXXXXXXX ",
"                        "
};
