/* XPM */
static char *db40b24586d94acfd32f54bae85385f6CaMT7zAL6svnxLTp[] = {
/* columns rows colors chars-per-pixel */
"24 24 8 1 ",
"  c black",
". c #455A64",
"X c #D50000",
"o c #D32F2F",
"O c #EF5350",
"+ c #E57373",
"@ c yellow",
"# c #90A4AE",
/* pixels */
"                        ",
" X oooo.......... OOOOO ",
" X ooo.####..####.OOOOO ",
" X oo.#####..#####.OOOO ",
"    .######..######.    ",
" OO.#######..#######.oo ",
" OO.#######..#######.oo ",
" OO.#######..#######.oo ",
" OO.#######..#######.oo ",
"   .#######..#######.   ",
" oo.#######..#######.OO ",
" oo.#######..#######.OO ",
" oo.#######..#######.OO ",
" oo.####@@#..#@@####.OO ",
"   .####@@#..#@@####.   ",
" ++.#######..#######.oo ",
" ++.#######..#######.oo ",
" ++.#######..#######.oo ",
" ++.#######..#######.oo ",
"   .#######..#######.   ",
" OO.#######..#######.oo ",
" OO.#######..#######.oo ",
" OO.#######..#######.oo ",
"                        "
};
